<svg xmlns="http://www.w3.org/2000/svg" width="619" height="619" viewBox="0 0 619 619" fill="none"><path d="M226.276 581.322C322.069 581.322 399.724 574.344 399.724 565.736C399.724 557.128 322.069 550.15 226.276 550.15C130.483 550.15 52.8281 557.128 52.8281 565.736C52.8281 574.344 130.483 581.322 226.276 581.322Z" fill="#EBEBEB"></path><path d="M395.604 382.759H338.934V541.734H395.604V382.759Z" fill="#FFC727"></path><g opacity="0.1"><path d="M395.607 382.759H382.629V541.734H395.607V382.759Z" fill="black"></path></g><path d="M470.272 322.677H413.602V541.734H470.272V322.677Z" fill="#FFC727"></path><g opacity="0.1"><path d="M470.259 322.677H457.281V541.734H470.259V322.677Z" fill="black"></path></g><path d="M321.112 418.554H264.441V541.721H321.112V418.554Z" fill="#FFC727"></path><g opacity="0.1"><path d="M321.111 418.554H308.133V541.721H321.111V418.554Z" fill="black"></path></g><path d="M544.928 242.659H488.258V541.721H544.928V242.659Z" fill="#FFC727"></path><g opacity="0.1"><path d="M544.927 242.659H531.949V541.721H544.927V242.659Z" fill="black"></path></g><path d="M244.371 493.974V463.322C244.371 463.322 450.783 445.758 534.164 217.098L542.457 219.236C542.457 219.236 487.072 453.607 244.371 493.974Z" fill="#11AB00"></path><path d="M550.193 226.924L524.113 218.297L545.719 196.753L550.193 226.924Z" fill="#11AB00"></path><path d="M48.5117 541.733L113.711 541.424L178.91 541.325L309.308 541.115L439.706 541.313L504.905 541.424L570.104 541.733L504.905 542.03L439.706 542.141L309.308 542.351L178.91 542.141L113.711 542.03L48.5117 541.733Z" fill="#263238"></path><path d="M366.673 119.207C370.381 140.219 358.021 163.06 331.027 171.526C306.492 179.227 278.731 166.459 272.626 150.292C266.161 133.161 277.174 116.735 290.98 115.313C304.279 113.892 314.86 121.221 324.698 117.241C329.407 115.326 334.685 108.589 341.52 105.425C349.146 101.903 364.312 105.734 366.673 119.207Z" fill="#263238"></path><path d="M282.672 164.679C289.599 170.092 297.793 173.648 306.477 175.012C315.167 176.348 324.047 175.671 332.433 173.035C340.906 170.535 348.551 165.805 354.57 159.34C360.461 152.801 364.468 144.788 366.164 136.152C364.115 144.595 359.946 152.376 354.051 158.759C351.075 161.886 347.691 164.596 343.99 166.818C340.282 169.017 336.318 170.752 332.186 171.984C328.055 173.243 323.806 174.071 319.505 174.456C310.861 175.219 302.158 173.949 294.093 170.748C290.037 169.233 286.197 167.193 282.672 164.679Z" fill="#263238"></path><path d="M287.281 114.942C289.852 114.138 292.535 113.746 295.229 113.781C297.902 113.788 300.565 114.107 303.164 114.732C305.784 115.375 308.429 115.968 311.099 116.438C313.79 116.951 316.532 117.15 319.269 117.031C320.651 116.959 322.024 116.765 323.372 116.45C324.715 116.07 326.003 115.517 327.204 114.806C329.504 113.362 331.712 111.777 333.817 110.06C335.916 108.405 338.217 107.022 340.664 105.944C343.147 104.903 345.798 104.321 348.488 104.226C345.763 104.117 343.044 104.537 340.479 105.462C337.944 106.469 335.547 107.794 333.347 109.405C331.122 110.95 329.021 112.656 326.722 113.966C325.594 114.637 324.38 115.153 323.113 115.499C321.83 115.788 320.522 115.958 319.207 116.005C313.905 116.339 308.615 114.992 303.337 113.966C300.666 113.419 297.941 113.191 295.216 113.286C292.497 113.387 289.814 113.947 287.281 114.942Z" fill="#263238"></path><path d="M96.3466 158.202C98.9545 152.158 179.851 149.192 248.622 148.314H248.745C279.781 147.931 309.594 145.076 328.381 146.052C340.321 146.683 346.711 150.996 348.157 152.702C352.767 158.239 361.209 176.001 329.419 198.434C305.367 215.404 277.767 230.57 257.261 256.526C236.756 282.482 225.249 315.199 226.707 337.496C228.166 359.794 244.358 381.078 242.775 378.766C242.281 378.05 236.262 378.408 227.857 373.538C217.536 367.556 205.547 354.899 197.439 351.179C180.864 343.59 158.456 344.875 140.954 327.126C122.401 308.488 117.89 275.548 109.077 249.469C98.3983 217.79 73.7896 210.399 96.3466 158.202Z" fill="white"></path><g opacity="0.2"><path d="M96.3466 158.202C98.9545 152.158 179.851 149.192 248.622 148.314H248.745C279.781 147.931 309.594 145.076 328.381 146.052C340.321 146.683 346.711 150.996 348.157 152.702C352.767 158.239 361.209 176.001 329.419 198.434C305.367 215.404 277.767 230.57 257.261 256.526C236.756 282.482 225.249 315.199 226.707 337.496C228.166 359.794 244.358 381.078 242.775 378.766C242.281 378.05 236.262 378.408 227.857 373.538C217.536 367.556 205.547 354.899 197.439 351.179C180.864 343.59 158.456 344.875 140.954 327.126C122.401 308.488 117.89 275.548 109.077 249.469C98.3983 217.79 73.7896 210.399 96.3466 158.202Z" fill="black"></path></g><path opacity="0.1" d="M112.783 261.272C111.608 257.243 110.422 253.275 109.075 249.469C106.458 242.128 103.073 235.085 98.9766 228.457C98.9766 228.457 171.493 210.411 192.641 219.199C204.247 223.995 170.269 227.023 112.783 261.272Z" fill="black"></path><path opacity="0.1" d="M210.17 360.301C205.436 356.407 200.974 352.885 197.328 351.241C193.07 349.394 188.662 347.913 184.152 346.816C188.812 316.695 194.04 295.893 207.08 282.099C215.374 273.249 194.436 324.037 210.17 360.301Z" fill="black"></path><path opacity="0.1" d="M119.065 283.767C117.989 280.134 116.963 276.463 115.938 272.792C139.335 263.349 159.197 249.703 159.358 252.892C159.605 256.402 134.403 273.706 119.065 283.767Z" fill="black"></path><path d="M74.827 224.267C74.827 224.267 68.1402 194.603 88.5218 158.759C90.4994 155.273 125.009 140.54 148.072 138.599C171.136 136.659 188.675 143.543 216.052 147.511C243.43 151.478 316.304 142.666 333.93 146.423C346.042 149.006 347.995 152.764 347.995 152.764C347.995 152.764 333.843 148.29 325.339 148.426C291.683 148.969 231.935 166.805 216.262 166.57C197.129 166.286 175.821 164.555 160.296 168.288C142.943 172.355 84.9869 213.328 74.827 224.267Z" fill="#949494"></path><path d="M264.218 447.562C262.376 445.523 232.589 377.11 233.12 373.761C233.293 372.525 297.133 352.885 297.133 352.885L314.635 397.307L274.254 406.033C274.254 406.033 273.933 437.328 273.018 440.925C272.104 444.522 266.047 449.602 264.218 447.562Z" fill="#EB9481"></path><path d="M264.218 447.562C263.415 446.66 257.21 432.953 250.548 417.577C250.116 416.563 249.671 415.538 249.238 414.512C248.089 411.891 246.964 409.234 245.839 406.601C245.406 405.575 244.986 404.55 244.603 403.536C244.183 402.522 243.75 401.497 243.367 400.508C242.712 398.975 242.131 397.467 241.488 395.996C241.093 395.032 240.71 394.081 240.326 393.166L239.226 390.447C238.683 389.112 238.176 387.839 237.694 386.615C237.36 385.799 237.039 384.984 236.742 384.205C236.149 382.697 235.617 381.313 235.172 380.077C234.925 379.459 234.715 378.841 234.53 378.334C234.048 376.974 233.689 375.862 233.491 375.12C233.352 374.723 233.281 374.305 233.281 373.884C233.281 373.439 240.808 370.386 250.585 366.542C251.97 373.81 254.899 386.924 260.473 406.527C269.57 438.75 273.711 426.105 274.18 419.728C274.18 419.666 274.18 419.604 274.18 419.542C274.18 419.925 274.18 420.321 274.18 420.704V420.791C274.18 421.495 274.18 422.212 274.119 422.916C274.057 423.621 274.119 424.474 274.119 425.252C274.119 426.488 274.057 427.823 273.995 429.072C273.933 430.32 273.921 431.544 273.859 432.644C273.859 433.324 273.859 433.979 273.773 434.597C273.773 434.918 273.773 435.215 273.773 435.524C273.773 435.833 273.773 436.327 273.698 436.76C273.698 437.6 273.6 438.354 273.525 438.997C273.538 439.145 273.538 439.294 273.525 439.442C273.476 439.961 273.397 440.476 273.291 440.987C272.017 444.497 266.048 449.589 264.218 447.562Z" fill="#263238"></path><path d="M288.125 409.84L270.734 358.286C270.734 358.286 336.687 332.738 337.812 328.4C338.257 326.706 295.059 263.51 287.025 239.111C281.685 222.87 294.886 204.923 294.886 204.923L342.435 217.679C342.435 217.679 339.963 231.275 341.557 233.982C356.599 258.937 398.735 327.831 394.779 351.773C390.997 374.688 288.125 409.84 288.125 409.84Z" fill="#263238"></path><path d="M298.418 403.178C296.539 397.195 288.53 373.007 286.268 367.025C285.626 365.294 285.032 363.564 284.315 361.858C283.71 360.127 283.008 358.431 282.214 356.778C282.203 356.757 282.185 356.741 282.164 356.732C282.142 356.723 282.117 356.722 282.095 356.73C282.073 356.737 282.054 356.752 282.041 356.773C282.029 356.793 282.025 356.817 282.029 356.84C282.384 358.432 282.826 360.005 283.351 361.549C283.809 363.119 284.303 364.676 284.797 366.234C285.761 369.311 286.763 372.414 287.764 375.442C289.741 381.424 296.267 400.162 297.911 403.363C298.047 403.623 298.517 403.487 298.418 403.178Z" fill="#37474F"></path><path d="M345.154 329.722C339.468 322.862 299.014 251.854 296.95 247.701C294.811 243.919 293.182 239.871 292.104 235.662C290.152 226.405 293.069 216.764 297.048 208.47C297.064 208.421 297.063 208.368 297.043 208.32C297.024 208.272 296.989 208.232 296.944 208.207C296.898 208.182 296.846 208.174 296.795 208.184C296.744 208.193 296.698 208.22 296.665 208.26C292.685 215.479 289.904 223.686 290.485 232.016C290.839 236.26 292.001 240.397 293.909 244.203C295.862 248.369 298.025 252.447 300.089 256.563C304.366 265.042 341.075 326.088 344.103 329.957C337.021 333.764 329.926 337.558 322.72 341.081C315.304 344.789 307.74 348.237 300.163 351.636C295.887 353.548 291.585 355.418 287.259 357.248C287.074 357.322 287.16 357.619 287.346 357.544C302.883 351.718 318.041 344.927 332.732 337.212C336.885 335.037 341.038 332.824 345.092 330.476C345.149 330.433 345.196 330.378 345.231 330.316C345.265 330.253 345.286 330.184 345.292 330.113C345.297 330.042 345.288 329.97 345.264 329.903C345.241 329.835 345.203 329.774 345.154 329.722Z" fill="#37474F"></path><path d="M331.419 317.535C319.183 298.044 293.103 257.527 287.022 239.111C281.682 222.87 294.883 204.923 294.883 204.923L313.188 209.867L331.419 317.535Z" fill="#37474F"></path><path d="M214.135 493.455C211.552 492.491 153.571 445.474 152.533 442.272C152.1 441.036 158.465 432.224 166.45 421.755L166.709 421.433C168.353 419.27 200.081 385.317 200.081 385.317L237.384 416.91L204.432 451.357L203.901 451.975C203.901 451.975 218.028 479.896 218.832 483.53C219.635 487.164 216.607 494.419 214.135 493.455Z" fill="#EB9481"></path><path d="M162.448 426.971C156.417 435.042 152.116 441.271 152.474 442.285C153.574 445.511 211.493 492.479 214.138 493.455C216.783 494.432 219.651 487.152 218.847 483.567C218.365 481.355 212.927 470.119 208.749 461.678C211.394 467.623 213.433 479.674 190.209 456.536C175.735 442.223 167.17 432.57 162.448 426.971Z" fill="#263238"></path><path d="M342.434 217.679C342.434 217.679 331.385 243.338 322.374 249.147C322.374 249.147 289.595 329.722 279.188 350.895C265.456 378.853 217.846 443.212 217.846 443.212L172.484 408.739C172.484 408.739 232.171 334.827 232.937 332.973C237.276 322.43 271.599 244.796 271.476 242.745C270.24 221.733 285.072 202.303 285.072 202.303L342.434 217.679Z" fill="#263238"></path><path d="M322.126 249.197C321.669 249.769 321.325 250.424 321.113 251.125C320.829 251.768 320.557 252.361 320.285 253.065C319.741 254.301 319.185 255.661 318.653 256.971C317.553 259.678 316.428 262.372 315.304 265.079C314.179 267.786 313.054 270.493 311.979 273.212C310.903 275.931 309.84 278.515 309 281.234C309 281.333 309.124 281.395 309.173 281.234C310.632 278.762 311.868 276.055 313.079 273.41C314.29 270.765 315.464 268.07 316.577 265.376C317.689 262.681 318.789 259.95 319.864 257.231C320.371 255.995 320.841 254.685 321.323 253.411C321.57 252.756 321.805 252.089 322.04 251.422C322.366 250.766 322.559 250.051 322.608 249.32C322.596 249.271 322.57 249.226 322.534 249.19C322.498 249.155 322.453 249.129 322.404 249.116C322.355 249.104 322.303 249.105 322.254 249.119C322.205 249.133 322.161 249.16 322.126 249.197Z" fill="#37474F"></path><path d="M341.963 221.51C338.317 227.492 334.831 233.561 330.839 239.333C329.999 240.569 329.121 242.3 327.774 243.041C327.5 243.202 327.189 243.287 326.872 243.287C326.554 243.287 326.243 243.202 325.969 243.041C325.203 242.51 325.586 241.447 325.907 240.779C326.674 239.185 327.638 237.665 328.491 236.107C329.344 234.55 330.283 232.807 331.185 231.163C333.187 227.455 334.967 223.747 336.982 220.039C337.044 219.928 336.883 219.829 336.821 219.94C334.732 223.549 332.434 227.035 330.332 230.644L327.094 236.169L325.586 238.814C325.096 239.559 324.705 240.365 324.424 241.212C324.308 241.524 324.258 241.856 324.278 242.188C324.297 242.52 324.386 242.844 324.539 243.14C324.691 243.436 324.904 243.696 325.163 243.905C325.422 244.113 325.722 244.266 326.043 244.351C326.724 244.468 327.424 244.392 328.064 244.132C328.704 243.872 329.258 243.439 329.665 242.881C330.801 241.448 331.845 239.945 332.792 238.381C333.867 236.738 334.93 235.081 335.931 233.437C338.247 229.62 340.287 225.642 342.037 221.535C342.074 221.498 342 221.448 341.963 221.51Z" fill="#37474F"></path><path d="M325.771 243.598C324.869 244.352 321.433 248.863 321.223 249.11C321.012 249.357 321.717 249.666 321.816 249.567C323.408 247.719 324.874 245.766 326.204 243.721C326.228 243.647 325.845 243.523 325.771 243.598Z" fill="#37474F"></path><path d="M329.478 247.565C326.393 247.79 323.332 248.282 320.332 249.036C318.836 249.357 317.353 249.691 315.87 250.074C314.279 250.399 312.714 250.837 311.186 251.385C311.167 251.392 311.15 251.404 311.139 251.421C311.127 251.437 311.121 251.457 311.121 251.477C311.121 251.497 311.127 251.517 311.139 251.534C311.15 251.55 311.167 251.563 311.186 251.57C312.796 251.479 314.399 251.276 315.981 250.964C317.44 250.754 318.886 250.507 320.332 250.223C323.448 249.755 326.517 249.014 329.503 248.01C329.562 248.007 329.617 247.98 329.657 247.936C329.696 247.892 329.717 247.834 329.713 247.775C329.71 247.716 329.683 247.661 329.639 247.622C329.595 247.582 329.537 247.562 329.478 247.565Z" fill="#37474F"></path><path d="M221.551 431.816C216.607 427.947 196.3 412.571 191.035 408.925C189.527 407.874 188.019 406.799 186.498 405.773C185.017 404.693 183.478 403.695 181.888 402.782C181.867 402.772 181.843 402.769 181.82 402.775C181.797 402.781 181.777 402.795 181.764 402.815C181.75 402.834 181.744 402.858 181.747 402.881C181.749 402.904 181.76 402.926 181.777 402.943C182.953 404.053 184.191 405.097 185.485 406.07C186.721 407.096 188.056 408.097 189.341 409.11C191.813 411.1 194.446 413.053 197.004 415.006C202.035 418.813 218.016 430.592 221.193 432.248C221.551 432.384 221.836 432.013 221.551 431.816Z" fill="#37474F"></path><path d="M290.93 206.641C287.105 211.731 284.237 217.472 282.464 223.587C281.605 226.599 281.01 229.68 280.684 232.795C280.313 236.293 280.548 239.89 279.448 243.276C278.191 246.737 276.759 250.132 275.159 253.449L270.623 263.831L261.687 284.447L243.691 325.841C242.257 329.166 240.848 332.503 239.179 335.729C237.545 338.848 235.66 341.828 233.543 344.641C229.13 350.611 224.409 356.358 219.86 362.217C210.677 373.996 201.444 385.701 192.471 397.665L189.084 402.189C189.01 402.288 189.084 402.424 189.22 402.325C198.7 390.731 207.958 378.964 217.228 367.185C221.867 361.302 226.485 355.402 231.083 349.486C233.16 346.816 235.224 344.122 237.066 341.279C238.987 338.268 240.677 335.115 242.121 331.848C248.301 318.252 254.085 304.397 260.055 290.677C266.025 276.957 272.057 263.077 278.014 249.259C279.543 246.241 280.598 243.006 281.141 239.667C281.5 236.243 281.512 232.82 282.105 229.408C283.249 222.958 285.467 216.745 288.669 211.029C289.46 209.608 290.325 208.223 291.227 206.876C291.375 206.678 291.066 206.456 290.93 206.641Z" fill="#37474F"></path><path d="M187.052 249.162L167.477 304.014L258.02 336.326L277.595 281.474L187.052 249.162Z" fill="#2A7BE4"></path><path d="M187.058 249.153L177.84 274.984L268.383 307.297L277.601 281.465L187.058 249.153Z" fill="#255398"></path><path d="M178.661 265.909L273.488 299.75L282.624 274.152L187.797 240.311L178.661 265.909Z" fill="#2A7BE4"></path><path d="M220.454 235.514L215.238 250.111L222.11 252.559L225.077 244.253L251.268 253.609L248.301 261.915L255.173 264.362L260.377 249.753L220.454 235.514Z" fill="#263238"></path><path d="M252.123 299.007L258.305 301.213L262.667 288.99L256.485 286.784L252.123 299.007Z" fill="#263238"></path><path d="M189.487 276.679L195.668 278.885L200.03 266.662L193.849 264.456L189.487 276.679Z" fill="#263238"></path><path d="M340.307 166.545C355.917 191.92 375.693 215.169 384.803 215.342C397.064 215.577 423.119 202.982 436.072 195.122C439.867 192.835 421.413 163.628 417.347 166.076C412.403 169.03 387.275 184.751 386.706 184.887C385.47 185.184 357.191 165.878 350.541 161.094C339.429 153.122 333.385 155.285 340.307 166.545Z" fill="#EB9481"></path><path d="M454.87 182.416C450.186 188.114 436.021 196.012 431.881 196.605C427.74 197.198 413.501 173.591 415.046 169.574C416.591 165.557 433.883 147.61 441.25 146.09C448.616 144.569 459.728 176.508 454.87 182.416Z" fill="#EB9481"></path><path d="M430.438 150.712C429.869 154.581 434.752 153.036 434.752 153.036C434.752 153.036 428.263 156.967 429.227 161.181C430.191 165.396 436 163.159 436.42 163.011C436.074 163.221 430.24 166.991 431.6 171.119C432.959 175.247 438.558 172.355 438.917 172.12C438.657 172.417 435.283 176.446 437.063 179.351C440.128 184.295 449.027 174.271 453.761 174.184C453.761 174.184 454.837 182.181 454.911 182.416C454.911 182.416 463.563 173.01 463.105 166.632C463.051 165.704 462.681 164.822 462.056 164.134C461.43 163.446 460.588 162.993 459.669 162.85C459.669 162.85 462.796 160.118 461.795 156.831C461.276 155.15 458.087 154.47 458.087 154.47C458.761 153.816 459.242 152.989 459.478 152.08C459.713 151.171 459.694 150.215 459.422 149.316C458.569 147.017 455.541 146.708 455.541 146.708C455.541 146.708 456.839 143.432 455.207 141.368C451.932 137.203 431.674 142.431 430.438 150.712Z" fill="#EB9481"></path><path d="M455.056 146.584C455.13 146.584 455.13 146.473 455.056 146.473C447.673 146.538 440.484 148.844 434.44 153.085C434.254 153.234 434.44 153.592 434.638 153.481C441.072 150.2 447.951 147.876 455.056 146.584Z" fill="#263238"></path><path d="M458.171 154.408C458.246 154.408 458.233 154.26 458.171 154.26C450.027 154.417 442.209 157.487 436.133 162.912C435.923 163.11 435.936 163.493 436.133 163.283C440.459 159.772 451.448 155.52 458.171 154.408Z" fill="#263238"></path><path d="M438.592 172.663C444.587 167.435 451.657 164.642 459.333 162.775C459.431 162.775 459.333 162.615 459.333 162.615C455.34 162.479 450.569 164.147 446.973 165.767C443.602 167.195 440.665 169.484 438.456 172.404C438.321 172.577 438.469 172.775 438.592 172.663Z" fill="#263238"></path><path d="M434.713 153.036C433.541 153.905 432.449 154.877 431.45 155.941C430.442 156.936 429.717 158.182 429.349 159.55C429.209 160.186 429.31 160.851 429.633 161.416C429.97 161.981 430.447 162.449 431.018 162.776C431.61 163.058 432.256 163.212 432.912 163.227C433.568 163.242 434.22 163.118 434.824 162.862L437.84 161.75L435.368 163.839C434.275 164.76 433.339 165.854 432.6 167.077C432.226 167.622 431.973 168.239 431.856 168.889C431.738 169.539 431.76 170.206 431.92 170.847C432.075 171.443 432.429 171.968 432.924 172.334C433.418 172.701 434.024 172.887 434.639 172.862C436.007 172.777 437.333 172.352 438.495 171.626L441.758 169.685L439.286 172.577C438.601 173.381 438.024 174.27 437.568 175.222C437.103 176.102 436.91 177.1 437.012 178.09C437.082 178.533 437.27 178.948 437.557 179.292C437.845 179.636 438.22 179.896 438.644 180.043C439.644 180.214 440.673 180.099 441.61 179.709C443.652 178.885 445.627 177.906 447.518 176.78C448.482 176.248 449.471 175.704 450.472 175.21C451.449 174.658 452.532 174.321 453.649 174.221C452.564 174.429 451.531 174.849 450.608 175.457C449.656 176.013 448.729 176.631 447.802 177.237C445.955 178.521 443.989 179.627 441.931 180.537C440.825 181.051 439.592 181.232 438.384 181.056C437.749 180.879 437.178 180.522 436.739 180.029C436.301 179.536 436.014 178.927 435.912 178.275C435.75 177.047 435.961 175.798 436.518 174.691C437.006 173.623 437.63 172.622 438.372 171.712L439.2 172.664C437.847 173.572 436.277 174.105 434.651 174.209C433.762 174.231 432.891 173.952 432.179 173.418C431.499 172.854 431 172.101 430.746 171.255C430.542 170.442 430.513 169.595 430.662 168.77C430.812 167.945 431.135 167.161 431.611 166.471C432.436 165.136 433.481 163.949 434.701 162.961L435.269 163.938C434.506 164.222 433.69 164.339 432.877 164.279C432.064 164.219 431.274 163.985 430.56 163.592C429.88 163.143 429.323 162.531 428.941 161.812C428.564 161.076 428.468 160.228 428.669 159.426C429.138 157.987 429.993 156.705 431.141 155.718C432.227 154.692 433.425 153.792 434.713 153.036Z" fill="#263238"></path><path d="M417.457 166.002C417.457 166.002 426.233 135.942 436.306 145.126C439.297 147.857 448.32 162.64 445.391 164.506C441.596 166.978 436.677 161.466 434.131 157.535C434.131 157.535 432.586 168.189 424.861 169.314C423.441 169.5 421.998 169.289 420.691 168.704C419.384 168.119 418.265 167.184 417.457 166.002Z" fill="#EB9481"></path><path d="M435.382 144.421C436.682 145.352 437.839 146.468 438.818 147.733C439.819 148.978 440.744 150.282 441.586 151.639C443.296 154.354 444.769 157.212 445.987 160.18C446.308 160.971 446.516 161.803 446.605 162.652C446.654 163.141 446.595 163.635 446.432 164.098C446.257 164.613 445.907 165.05 445.443 165.334C444.626 165.835 443.657 166.028 442.711 165.878C441.842 165.725 441.006 165.424 440.239 164.988C438.828 164.127 437.575 163.032 436.531 161.75C435.479 160.526 434.52 159.224 433.664 157.856L434.677 157.621C434.453 158.828 434.118 160.011 433.676 161.156C433.245 162.297 432.698 163.39 432.044 164.419C431.381 165.441 430.573 166.361 429.647 167.151C428.724 167.928 427.663 168.524 426.52 168.906C427.579 168.392 428.545 167.702 429.375 166.867C430.188 166.026 430.883 165.078 431.439 164.049C432.003 163.033 432.467 161.965 432.823 160.86C433.175 159.76 433.428 158.631 433.577 157.485L433.738 156.064L434.591 157.3C435.466 158.6 436.428 159.838 437.471 161.008C438.454 162.161 439.619 163.146 440.919 163.925C441.471 164.312 442.113 164.551 442.783 164.621C443.454 164.69 444.131 164.587 444.751 164.32C445.702 163.814 445.319 162.108 444.825 160.711C444.292 159.244 443.686 157.804 443.008 156.398C442.328 154.976 441.648 153.555 440.894 152.171C439.47 149.317 437.61 146.703 435.382 144.421Z" fill="#263238"></path><path d="M399.177 176.594L413.873 209.534C413.873 209.534 390.068 217.926 382.305 215.182C374.543 212.438 352.641 189.3 342.197 171.366C331.753 153.432 337.908 151.083 355.151 163.208C372.393 175.334 386.051 183.85 386.557 183.627C387.064 183.405 399.177 176.594 399.177 176.594Z" fill="#EBEBEB"></path><path d="M394.359 181.452C394.359 181.353 394.149 181.452 394.174 181.526C397.281 191.291 400.917 200.88 405.063 210.251C405.063 210.349 405.286 210.251 405.248 210.176C402.146 200.41 398.511 190.82 394.359 181.452Z" fill="#263238"></path><path d="M369.156 205.034C359.886 196.011 348.762 182.65 342.199 171.366C333.757 156.855 336.179 152.541 346.562 157.868L369.156 205.034Z" fill="#C7C7C7"></path><path d="M344.769 208.952L342.297 228.246C342.297 228.246 301.904 224.217 281.09 206.431C281.09 206.431 303.338 161.849 325.895 152.282C337.192 147.486 345.807 152.134 348.86 160.452C349.638 162.553 358.315 186.111 356.202 195.567C354.372 203.897 344.769 208.952 344.769 208.952Z" fill="#EBEBEB"></path><path d="M343.918 164.457L343.844 164.111V163.975C343.844 163.975 343.918 163.913 343.93 163.975L344.017 164.135C344.103 164.358 344.19 164.58 344.264 164.803C344.412 165.248 344.536 165.705 344.659 166.162C344.907 167.065 345.129 167.992 345.339 168.906C345.759 170.748 346.044 172.614 346.303 174.481C346.812 178.232 346.981 182.021 346.81 185.802C346.675 189.613 345.992 193.384 344.783 197.001C343.618 200.67 341.528 203.977 338.714 206.604L338.801 206.468C337.664 209.867 336.477 213.242 335.278 216.616L333.449 221.659C332.819 223.327 332.213 225.021 331.422 226.603C332.139 224.959 332.658 223.253 333.251 221.56L334.932 216.468L338.17 206.246V206.172L338.232 206.11C340.771 203.42 342.646 200.173 343.708 196.63C344.775 193.081 345.414 189.417 345.611 185.716C345.804 182.008 345.747 178.292 345.438 174.592C345.29 172.738 345.043 170.884 344.795 169.03C344.672 168.091 344.523 167.176 344.363 166.249L344.079 164.877C344.079 164.642 343.98 164.42 343.918 164.197C343.922 164.144 343.922 164.09 343.918 164.037C343.918 164.037 343.918 164.123 343.918 164.16V164.457Z" fill="#263238"></path><path d="M355.546 181.242L355.397 180.636C355.426 179.848 355.393 179.058 355.299 178.275C355.169 177.324 354.945 176.389 354.631 175.482C354.631 175.42 354.532 175.482 354.545 175.482C354.842 176.796 355.041 178.13 355.138 179.474C354.5 176.735 353.652 174.05 352.604 171.44C352.604 171.424 352.598 171.408 352.586 171.397C352.574 171.385 352.559 171.378 352.542 171.378C352.526 171.378 352.51 171.385 352.499 171.397C352.487 171.408 352.48 171.424 352.48 171.44C353.296 174.703 354.161 177.954 354.854 181.242C355.546 184.529 356.09 187.83 356.658 191.13C356.658 191.253 356.881 191.216 356.868 191.13C356.724 187.801 356.281 184.492 355.546 181.242Z" fill="#263238"></path><path d="M343.619 173.863C343.631 174.109 343.569 174.354 343.441 174.565C343.313 174.777 343.125 174.945 342.9 175.048C342.676 175.151 342.426 175.184 342.182 175.144C341.938 175.103 341.712 174.991 341.533 174.821C341.354 174.65 341.23 174.431 341.177 174.189C341.124 173.948 341.145 173.696 341.236 173.467C341.328 173.237 341.486 173.041 341.69 172.902C341.895 172.763 342.136 172.689 342.383 172.688C342.7 172.688 343.006 172.81 343.236 173.028C343.466 173.247 343.603 173.546 343.619 173.863Z" fill="#263238"></path><path d="M342.718 186.346C343.373 186.346 343.904 185.815 343.904 185.16C343.904 184.504 343.373 183.973 342.718 183.973C342.062 183.973 341.531 184.504 341.531 185.16C341.531 185.815 342.062 186.346 342.718 186.346Z" fill="#263238"></path><path d="M336.116 206.11C336.772 206.11 337.303 205.579 337.303 204.923C337.303 204.268 336.772 203.737 336.116 203.737C335.461 203.737 334.93 204.268 334.93 204.923C334.93 205.579 335.461 206.11 336.116 206.11Z" fill="#263238"></path><path d="M332.608 216.529C333.264 216.529 333.795 215.998 333.795 215.343C333.795 214.687 333.264 214.156 332.608 214.156C331.953 214.156 331.422 214.687 331.422 215.343C331.422 215.998 331.953 216.529 332.608 216.529Z" fill="#263238"></path><path d="M341.245 196.469C341.9 196.469 342.432 195.938 342.432 195.282C342.432 194.627 341.9 194.096 341.245 194.096C340.59 194.096 340.059 194.627 340.059 195.282C340.059 195.938 340.59 196.469 341.245 196.469Z" fill="#263238"></path><path d="M320.162 150.107C290.783 150.218 267.756 156.46 262.416 163.147C258.004 168.659 244.334 192.811 238.562 207.519C236.943 211.647 269.894 226.417 271.068 221.82C272.898 214.7 287.903 180.228 288.063 179.672C288.385 178.436 317.888 166.336 325.428 163.604C339.259 158.4 335.736 150.008 320.162 150.107Z" fill="#EB9481"></path><path d="M249.611 260.382C248.542 260.233 247.545 259.759 246.754 259.025C245.963 258.292 245.416 257.333 245.186 256.279C243.54 257.085 241.663 257.286 239.883 256.847C236.793 255.945 236.855 250.667 236.855 250.667C234.974 251.144 232.994 251.045 231.17 250.383C228.29 249.209 227.61 243.894 227.61 243.894C225.639 243.381 223.918 242.174 222.765 240.495C219.86 235.897 223.482 228.407 225.731 223.624C227.981 218.84 238.845 207.37 240.687 204.985L271.587 219.162C271.587 219.162 267.595 243.486 264.171 248.739C261.18 253.164 253.69 260.79 249.611 260.382Z" fill="#EB9481"></path><path d="M245.776 256.292C249.991 252.336 252.809 247.343 255.899 242.523C255.961 242.411 255.8 242.3 255.726 242.411C252.71 247.244 248.767 251.422 245.566 256.119C245.543 256.146 245.532 256.182 245.536 256.218C245.539 256.254 245.557 256.287 245.585 256.31C245.613 256.333 245.648 256.344 245.684 256.341C245.72 256.337 245.753 256.319 245.776 256.292Z" fill="#263238"></path><path d="M237.311 250.767C238.181 249.776 238.917 248.674 239.499 247.491C240.191 246.255 240.858 245.019 241.514 243.783C242.824 241.311 244.084 238.839 245.222 236.268C245.222 236.157 245.11 236.058 245.048 236.169C243.738 238.641 242.403 241.113 240.982 243.474C240.278 244.71 239.561 245.872 238.844 247.071C238.08 248.149 237.442 249.31 236.94 250.532C236.909 250.581 236.899 250.64 236.912 250.697C236.924 250.754 236.959 250.803 237.008 250.834C237.057 250.866 237.117 250.876 237.174 250.863C237.231 250.85 237.28 250.816 237.311 250.767Z" fill="#263238"></path><path d="M227.658 243.808C228.434 242.902 229.049 241.869 229.475 240.755C230.056 239.618 230.625 238.481 231.218 237.343C232.454 235.082 233.554 232.82 234.815 230.595C234.828 230.572 234.831 230.545 234.824 230.519C234.817 230.494 234.8 230.472 234.777 230.459C234.755 230.446 234.727 230.442 234.702 230.449C234.676 230.456 234.655 230.473 234.642 230.496C233.406 232.746 232.046 234.97 230.785 237.245C230.167 238.345 229.549 239.469 228.944 240.582C228.299 241.552 227.826 242.627 227.547 243.758C227.547 243.758 227.621 243.845 227.658 243.808Z" fill="#263238"></path><path d="M278.754 205.591L245.555 189.214C245.555 189.214 256.567 164.383 263.254 159.55C269.941 154.717 298.406 149.662 319.134 149.86C340.208 150.07 341.073 158.388 321.272 165.594C301.471 172.8 288.741 179.363 288.629 179.919C288.518 180.475 278.754 205.591 278.754 205.591Z" fill="#EBEBEB"></path><path d="M280.595 201.759C282.041 198.298 288.802 180.117 289.025 179.968C289.494 179.672 297.071 175.988 299.321 174.888C301.224 173.961 303.152 173.071 305.08 172.182C306.712 171.835 308.356 171.489 309.95 170.946C309.969 170.938 309.985 170.926 309.997 170.909C310.009 170.893 310.015 170.873 310.015 170.853C310.015 170.833 310.009 170.813 309.997 170.796C309.985 170.78 309.969 170.767 309.95 170.76C308.816 170.912 307.693 171.139 306.588 171.44L312.929 168.535C312.929 168.535 312.929 168.449 312.929 168.461C308.146 170.13 288.543 178.831 288.506 179.128C288.469 179.424 280.472 200.943 280.422 201.376C280.336 201.611 280.558 201.858 280.595 201.759Z" fill="#263238"></path><path d="M278.753 196.593C278.865 196.593 278.939 196.457 278.84 196.407C269.824 191.536 260.549 187.162 251.055 183.306C250.943 183.306 250.869 183.429 250.968 183.491C259.987 188.355 269.263 192.729 278.753 196.593Z" fill="#263238"></path><path d="M335.723 152.023C335.723 153.259 339.431 162.417 344.894 163.542C346.686 163.901 349.096 154.235 349.096 154.235L349.442 153.568L354.213 144.137L344.387 133.631L342.941 132.209C342.941 132.209 341.816 134.867 340.469 138.204C340.407 138.352 340.333 138.501 340.271 138.674C340.209 138.847 340.11 139.032 340.036 139.218C339.826 139.712 339.604 140.206 339.406 140.726C339.208 141.245 339.097 141.479 338.949 141.962L338.479 143.198C337.368 146.076 336.448 149.024 335.723 152.023Z" fill="#EB9481"></path><path d="M340.43 138.204C340.726 141.265 341.686 144.226 343.242 146.879C344.798 149.532 346.913 151.814 349.44 153.568L354.211 144.137L344.385 133.631L342.939 132.209C342.939 132.209 341.814 134.867 340.43 138.204Z" fill="#263238"></path><path d="M371.034 125.634C374.742 143.791 364.285 148.067 360.379 148.858C356.82 149.588 344.62 151.602 339.046 133.915C333.472 116.228 340.752 108.775 348.798 106.723C356.845 104.671 367.326 107.477 371.034 125.634Z" fill="#EB9481"></path><path d="M364.927 135.757C364.574 136.604 364.013 137.348 363.295 137.92C362.888 138.215 362.401 138.378 361.898 138.389C360.811 138.389 360.526 137.462 360.502 136.609C360.491 136.157 360.532 135.705 360.625 135.262C361.97 135.88 363.477 136.053 364.927 135.757Z" fill="#263238"></path><path d="M363.309 137.92C362.902 138.215 362.415 138.379 361.912 138.389C360.825 138.389 360.54 137.463 360.516 136.61C361.061 136.479 361.634 136.537 362.142 136.775C362.649 137.014 363.061 137.417 363.309 137.92Z" fill="#FF9BBC"></path><path d="M366.673 121.196C366.261 121.219 365.849 121.219 365.437 121.196C364.987 121.257 364.531 121.165 364.139 120.937C364.026 120.843 363.948 120.714 363.919 120.57C363.89 120.426 363.911 120.276 363.978 120.146C364.142 119.906 364.367 119.715 364.631 119.593C364.894 119.472 365.185 119.423 365.474 119.454C366.072 119.424 366.661 119.613 367.13 119.985C367.224 120.083 367.288 120.205 367.316 120.338C367.343 120.471 367.332 120.608 367.284 120.735C367.236 120.862 367.153 120.973 367.045 121.054C366.937 121.136 366.808 121.185 366.673 121.196Z" fill="#263238"></path><path d="M355.039 125.312C355.454 125.293 355.867 125.243 356.275 125.164C356.719 125.168 357.152 125.029 357.511 124.768C357.61 124.661 357.67 124.524 357.683 124.379C357.697 124.234 357.662 124.089 357.585 123.965C357.393 123.746 357.147 123.582 356.872 123.489C356.596 123.396 356.301 123.376 356.016 123.434C355.419 123.473 354.857 123.728 354.434 124.15C354.341 124.257 354.283 124.389 354.266 124.53C354.25 124.67 354.276 124.812 354.342 124.937C354.407 125.062 354.508 125.165 354.633 125.232C354.757 125.299 354.899 125.327 355.039 125.312Z" fill="#263238"></path><path d="M358.512 128.835C358.512 128.835 358.438 128.921 358.45 128.971C358.771 130.207 358.932 131.641 357.906 132.308C357.906 132.308 357.906 132.382 357.906 132.37C359.253 131.863 359.019 129.947 358.512 128.835Z" fill="#263238"></path><path d="M357.13 127.859C355.115 128.155 355.894 132.16 357.736 131.876C359.577 131.591 358.811 127.55 357.13 127.859Z" fill="#263238"></path><path d="M356.374 128.168C356.065 128.452 355.805 128.922 355.385 129.045C354.965 129.169 354.458 128.835 354.062 128.489C354.186 129.255 354.631 129.985 355.484 129.948C356.337 129.91 356.658 129.132 356.72 128.316C356.658 128.23 356.497 128.044 356.374 128.168Z" fill="#263238"></path><path d="M365.251 127.117C365.251 127.117 365.362 127.117 365.362 127.204C365.547 128.44 365.98 129.861 367.167 130.071C365.77 130.195 365.226 128.328 365.251 127.117Z" fill="#263238"></path><path d="M366.164 125.621C368.13 125.102 369.007 129.082 367.19 129.552C365.373 130.021 364.471 126.042 366.164 125.621Z" fill="#263238"></path><path d="M367.016 125.695C367.374 125.831 367.77 126.153 368.153 126.091C368.536 126.029 368.82 125.522 369.006 125.053C369.006 125.053 369.006 125.053 369.08 125.053C369.265 125.807 369.191 126.66 368.487 126.969C367.782 127.278 367.251 126.697 366.868 125.98C366.806 125.881 366.868 125.634 367.016 125.695Z" fill="#263238"></path><path d="M364.693 133.112C364.693 133.112 365.324 134.904 365.497 135.781C365.497 135.868 365.311 135.942 365.015 136.016C364.293 136.303 363.507 136.386 362.741 136.255C361.976 136.124 361.262 135.785 360.676 135.275C360.657 135.262 360.643 135.241 360.638 135.218C360.634 135.195 360.639 135.171 360.652 135.151C360.665 135.131 360.685 135.118 360.708 135.113C360.732 135.109 360.756 135.113 360.775 135.126C362.039 135.668 363.446 135.781 364.78 135.448C364.78 135.201 363.606 132.407 363.742 132.37C364.427 132.279 365.121 132.279 365.806 132.37C364.57 128.662 362.815 125.041 361.678 121.246C361.678 121.11 361.838 121.024 361.9 121.135C363.934 124.892 365.59 128.842 366.844 132.926C367.005 133.483 365.077 133.186 364.693 133.112Z" fill="#263238"></path><path d="M340.667 136.152C343.733 135.584 342.744 129.132 342.744 129.132C342.744 129.132 348.837 127.525 348.528 118.243C349.045 120.911 348.774 123.672 347.75 126.19C347.75 126.19 358.181 122.21 360.307 112.025C360.307 112.025 359.726 117.081 358.466 119.157C360.968 117.604 362.868 115.246 363.855 112.47C363.855 112.47 367.118 117.155 368.935 118.193C368.935 118.193 368.341 108.453 363.163 104.807C352.236 97.1317 341.656 109.677 341.656 109.677C341.656 109.677 334.636 112.928 333.622 119.194C332.065 128.86 340.667 136.152 340.667 136.152Z" fill="#263238"></path><path d="M342.792 134.409C342.792 134.409 338.367 128.909 335.845 130.516C333.324 132.123 336.921 140.305 340.072 141.232C340.468 141.382 340.889 141.449 341.312 141.431C341.734 141.414 342.148 141.31 342.529 141.128C342.911 140.945 343.251 140.687 343.53 140.369C343.808 140.052 344.02 139.681 344.151 139.279L342.792 134.409Z" fill="#EB9481"></path><path d="M336.934 132.803V132.877C339.158 133.606 340.419 135.534 341.358 137.549C341.217 137.342 341.033 137.169 340.819 137.04C340.604 136.911 340.365 136.829 340.116 136.801C339.868 136.773 339.616 136.799 339.378 136.877C339.14 136.955 338.922 137.083 338.738 137.252C338.731 137.264 338.727 137.278 338.728 137.292C338.728 137.306 338.733 137.32 338.74 137.331C338.748 137.343 338.759 137.352 338.772 137.358C338.784 137.364 338.798 137.366 338.812 137.364C339.184 137.219 339.591 137.193 339.978 137.288C340.365 137.383 340.713 137.595 340.975 137.895C341.403 138.405 341.78 138.955 342.1 139.539C342.211 139.724 342.557 139.539 342.471 139.378C342.298 136.622 339.9 132.914 336.934 132.803Z" fill="#263238"></path><path d="M349.069 154.42L343.915 161.601L336.499 149.105L332.902 151.652C332.902 151.652 338.687 170.043 338.922 169.339L343.866 163.27L347.45 169.203L349.996 157.102L349.069 154.42Z" fill="#EBEBEB"></path><path d="M349.032 163.295C349.378 161.28 349.799 159.265 350.058 157.238C350.058 157.238 349.959 157.115 349.922 157.238C349.057 159.055 347.747 166.756 347.302 168.573C347.154 168.313 343.928 163.283 343.866 163.344C342.889 164.259 339.256 168.671 338.984 169.092C338.069 166.162 334.46 155.496 333.236 152.628C333.236 152.554 333.076 152.628 333.1 152.628C333.792 155.656 338.526 170.006 338.65 170.006C340.498 167.955 342.239 165.81 343.866 163.579C344.957 165.762 346.196 167.868 347.574 169.883C348.172 167.713 348.659 165.514 349.032 163.295Z" fill="#263238"></path><path d="M337.033 149.143C336.143 147.042 333.746 151.466 335.649 154.087C338.467 157.894 343.794 162.405 344.968 162.43C346.143 162.454 349.912 157.745 350.395 156.719C350.877 155.694 349.814 153.395 349.443 153.617C349.072 153.84 345.809 158.845 345.352 159.08C344.894 159.315 338.974 153.654 337.033 149.143Z" fill="#FFC727"></path><path d="M159.221 546.813H103.305V559.173H159.221V546.813Z" fill="#FFBF00"></path><g opacity="0.1"><path d="M105.618 547.938C106.442 551.182 106.442 554.581 105.618 557.826C105.174 556.216 104.966 554.551 105 552.882C104.974 551.213 105.182 549.549 105.618 547.938Z" fill="black"></path><path d="M109.782 547.938C110.606 551.182 110.606 554.581 109.782 557.826C108.958 554.581 108.958 551.182 109.782 547.938Z" fill="black"></path><path d="M111.809 547.938C112.633 551.182 112.633 554.581 111.809 557.826C110.985 554.581 110.985 551.182 111.809 547.938Z" fill="black"></path><path d="M122.985 547.938C123.809 551.182 123.809 554.581 122.985 557.826C122.161 554.581 122.161 551.182 122.985 547.938Z" fill="black"></path><path d="M126.001 547.938C126.436 549.549 126.644 551.213 126.619 552.882C126.652 554.551 126.444 556.216 126.001 557.826C125.177 554.581 125.177 551.182 126.001 547.938Z" fill="black"></path><path d="M138.497 547.938C138.926 549.55 139.134 551.214 139.115 552.882C139.141 554.551 138.933 556.215 138.497 557.826C138.053 556.216 137.845 554.551 137.879 552.882C137.853 551.213 138.061 549.549 138.497 547.938Z" fill="black"></path><path d="M141.376 547.938C142.2 551.182 142.2 554.581 141.376 557.826C140.552 554.581 140.552 551.182 141.376 547.938Z" fill="black"></path><path d="M146.679 547.938C147.114 549.549 147.322 551.213 147.297 552.882C147.331 554.551 147.122 556.216 146.679 557.826C146.242 556.215 146.034 554.551 146.061 552.882C146.042 551.214 146.249 549.55 146.679 547.938Z" fill="black"></path><path d="M136.087 547.938C136.911 551.182 136.911 554.581 136.087 557.826C135.263 554.581 135.263 551.182 136.087 547.938Z" fill="black"></path><path d="M115.504 547.938C115.934 549.55 116.142 551.214 116.122 552.882C116.149 554.551 115.941 556.215 115.504 557.826C115.061 556.216 114.853 554.551 114.886 552.882C114.861 551.213 115.069 549.549 115.504 547.938Z" fill="black"></path><path d="M129.977 547.938C130.801 551.182 130.801 554.581 129.977 557.826C129.153 554.581 129.153 551.182 129.977 547.938Z" fill="black"></path><path d="M132.055 547.938C132.491 549.549 132.699 551.213 132.673 552.882C132.707 554.551 132.499 556.216 132.055 557.826C131.231 554.581 131.231 551.182 132.055 547.938Z" fill="black"></path><path d="M153.573 547.938C154.003 549.55 154.211 551.214 154.191 552.882C154.225 554.551 154.017 556.216 153.573 557.826C153.136 556.215 152.928 554.551 152.955 552.882C152.936 551.214 153.144 549.55 153.573 547.938Z" fill="black"></path><path d="M156.716 547.938C157.54 551.182 157.54 554.581 156.716 557.826C155.892 554.581 155.892 551.182 156.716 547.938Z" fill="black"></path><path d="M149.138 547.938C149.573 549.549 149.781 551.213 149.756 552.882C149.789 554.551 149.581 556.216 149.138 557.826C148.314 554.581 148.314 551.182 149.138 547.938Z" fill="black"></path><path d="M120.575 547.938C121.399 551.182 121.399 554.581 120.575 557.826C119.751 554.581 119.751 551.182 120.575 547.938Z" fill="black"></path></g><path opacity="0.1" d="M159.221 546.813V549.433L103.305 551.201V546.813H159.221Z" fill="black"></path><path d="M155.401 534.453H99.4844V546.813H155.401V534.453Z" fill="#FFBF00"></path><g opacity="0.1"><path d="M101.786 535.59C102.61 538.835 102.61 542.234 101.786 545.478C100.962 542.234 100.962 538.835 101.786 535.59Z" fill="black"></path><path d="M105.95 535.59C106.774 538.835 106.774 542.234 105.95 545.478C105.126 542.234 105.126 538.835 105.95 535.59Z" fill="black"></path><path d="M107.992 535.59C108.422 537.202 108.63 538.866 108.61 540.534C108.636 542.203 108.428 543.867 107.992 545.478C107.551 543.868 107.343 542.203 107.374 540.534C107.348 538.866 107.556 537.201 107.992 535.59Z" fill="black"></path><path d="M119.153 535.59C119.977 538.835 119.977 542.234 119.153 545.478C118.329 542.234 118.329 538.835 119.153 535.59Z" fill="black"></path><path d="M122.18 535.59C123.004 538.835 123.004 542.234 122.18 545.478C121.738 543.868 121.53 542.203 121.562 540.534C121.535 538.866 121.743 537.201 122.18 535.59Z" fill="black"></path><path d="M134.665 535.59C135.489 538.835 135.489 542.234 134.665 545.478C133.841 542.234 133.841 538.835 134.665 535.59Z" fill="black"></path><path d="M137.508 535.59C137.938 537.202 138.146 538.866 138.126 540.534C138.158 542.203 137.949 543.868 137.508 545.478C137.066 543.868 136.858 542.203 136.89 540.534C136.87 538.866 137.078 537.202 137.508 535.59Z" fill="black"></path><path d="M142.86 535.59C143.684 538.835 143.684 542.234 142.86 545.478C142.036 542.234 142.036 538.835 142.86 535.59Z" fill="black"></path><path d="M132.255 535.59C133.079 538.835 133.079 542.234 132.255 545.478C131.431 542.234 131.431 538.835 132.255 535.59Z" fill="black"></path><path d="M111.684 535.59C112.508 538.835 112.508 542.234 111.684 545.478C110.86 542.234 110.86 538.835 111.684 535.59Z" fill="black"></path><path d="M126.149 535.59C126.973 538.835 126.973 542.234 126.149 545.478C125.325 542.234 125.325 538.835 126.149 535.59Z" fill="black"></path><path d="M128.234 535.59C129.058 538.835 129.058 542.234 128.234 545.478C127.793 543.868 127.585 542.203 127.616 540.534C127.59 538.866 127.798 537.201 128.234 535.59Z" fill="black"></path><path d="M149.766 535.59C150.59 538.835 150.59 542.234 149.766 545.478C148.942 542.234 148.942 538.835 149.766 535.59Z" fill="black"></path><path d="M152.884 535.59C153.708 538.835 153.708 542.234 152.884 545.478C152.06 542.234 152.06 538.835 152.884 535.59Z" fill="black"></path><path d="M145.316 535.59C146.14 538.835 146.14 542.234 145.316 545.478C144.875 543.868 144.667 542.203 144.698 540.534C144.672 538.866 144.88 537.201 145.316 535.59Z" fill="black"></path><path d="M116.741 535.59C117.177 537.201 117.386 538.866 117.359 540.534C117.391 542.203 117.183 543.868 116.741 545.478C116.306 543.867 116.098 542.203 116.123 540.534C116.103 538.866 116.311 537.202 116.741 535.59Z" fill="black"></path></g><path opacity="0.1" d="M155.389 534.453V537.086L99.4844 538.841V534.453H155.389Z" fill="black"></path><path d="M164.042 509.844H108.125V522.204H164.042V509.844Z" fill="#FFBF00"></path><g opacity="0.1"><path d="M110.423 511.019C111.247 514.263 111.247 517.662 110.423 520.907C109.599 517.662 109.599 514.263 110.423 511.019Z" fill="black"></path><path d="M114.587 511.019C115.023 512.63 115.231 514.294 115.205 515.963C115.236 517.632 115.028 519.297 114.587 520.907C113.763 517.662 113.763 514.263 114.587 511.019Z" fill="black"></path><path d="M116.629 511.019C117.453 514.263 117.453 517.662 116.629 520.907C116.187 519.297 115.979 517.632 116.011 515.963C115.985 514.294 116.193 512.63 116.629 511.019Z" fill="black"></path><path d="M127.79 511.019C128.614 514.263 128.614 517.662 127.79 520.907C126.966 517.662 126.966 514.263 127.79 511.019Z" fill="black"></path><path d="M130.817 511.019C131.641 514.263 131.641 517.662 130.817 520.907C129.993 517.662 129.993 514.263 130.817 511.019Z" fill="black"></path><path d="M143.302 511.019C144.126 514.263 144.126 517.662 143.302 520.907C142.478 517.662 142.478 514.263 143.302 511.019Z" fill="black"></path><path d="M146.156 511.019C146.98 514.263 146.98 517.662 146.156 520.907C145.715 519.297 145.507 517.632 145.538 515.963C145.512 514.294 145.72 512.63 146.156 511.019Z" fill="black"></path><path d="M151.497 511.019C152.321 514.263 152.321 517.662 151.497 520.907C150.673 517.662 150.673 514.263 151.497 511.019Z" fill="black"></path><path d="M140.89 511.019C141.326 512.63 141.534 514.294 141.508 515.963C141.539 517.632 141.331 519.297 140.89 520.907C140.454 519.295 140.246 517.631 140.272 515.963C140.251 514.294 140.459 512.631 140.89 511.019Z" fill="black"></path><path d="M120.309 511.019C121.133 514.263 121.133 517.662 120.309 520.907C119.485 517.662 119.485 514.263 120.309 511.019Z" fill="black"></path><path d="M134.786 511.019C135.61 514.263 135.61 517.662 134.786 520.907C133.962 517.662 133.962 514.263 134.786 511.019Z" fill="black"></path><path d="M136.872 511.019C137.696 514.263 137.696 517.662 136.872 520.907C136.048 517.662 136.048 514.263 136.872 511.019Z" fill="black"></path><path d="M158.403 511.019C159.211 514.265 159.211 517.66 158.403 520.907C157.579 517.662 157.579 514.263 158.403 511.019Z" fill="black"></path><path d="M161.52 511.019C161.957 512.63 162.165 514.294 162.138 515.963C162.17 517.632 161.962 519.297 161.52 520.907C160.696 517.662 160.696 514.263 161.52 511.019Z" fill="black"></path><path d="M153.954 511.019C154.778 514.263 154.778 517.662 153.954 520.907C153.13 517.662 153.13 514.263 153.954 511.019Z" fill="black"></path><path d="M125.378 511.019C125.808 512.631 126.016 514.294 125.996 515.963C126.028 517.632 125.819 519.297 125.378 520.907C124.942 519.295 124.734 517.631 124.76 515.963C124.74 514.294 124.948 512.631 125.378 511.019Z" fill="black"></path></g><path opacity="0.1" d="M164.029 509.857V512.477L108.125 514.245V509.857H164.029Z" fill="black"></path><path d="M162.631 497.497H106.715V509.857H162.631V497.497Z" fill="#FFBF00"></path><g opacity="0.1"><path d="M160.113 508.547C159.682 506.935 159.474 505.271 159.495 503.603C159.464 501.934 159.672 500.269 160.113 498.659C160.555 500.269 160.763 501.934 160.731 503.603C160.752 505.271 160.544 506.935 160.113 508.547Z" fill="black"></path><path d="M155.944 508.547C155.513 506.935 155.305 505.271 155.326 503.603C155.301 501.934 155.509 500.27 155.944 498.659C156.386 500.269 156.594 501.934 156.562 503.603C156.589 505.272 156.381 506.936 155.944 508.547Z" fill="black"></path><path d="M153.906 508.547C153.099 505.3 153.099 501.905 153.906 498.659C154.73 501.903 154.73 505.302 153.906 508.547Z" fill="black"></path><path d="M142.745 508.547C142.314 506.935 142.106 505.271 142.127 503.603C142.102 501.934 142.31 500.27 142.745 498.659C143.187 500.269 143.395 501.934 143.363 503.603C143.384 505.271 143.176 506.935 142.745 508.547Z" fill="black"></path><path d="M139.731 508.547C138.907 505.302 138.907 501.903 139.731 498.659C140.555 501.903 140.555 505.302 139.731 508.547Z" fill="black"></path><path d="M127.234 508.547C126.803 506.935 126.596 505.271 126.616 503.603C126.585 501.934 126.793 500.269 127.234 498.659C127.67 500.27 127.878 501.934 127.852 503.603C127.873 505.271 127.665 506.935 127.234 508.547Z" fill="black"></path><path d="M124.341 508.547C123.517 505.302 123.517 501.903 124.341 498.659C125.165 501.903 125.165 505.302 124.341 508.547Z" fill="black"></path><path d="M119.052 508.547C118.228 505.302 118.228 501.903 119.052 498.659C119.876 501.903 119.876 505.302 119.052 508.547Z" fill="black"></path><path d="M129.645 508.547C128.821 505.302 128.821 501.903 129.645 498.659C130.087 500.269 130.295 501.934 130.263 503.603C130.29 505.272 130.082 506.936 129.645 508.547Z" fill="black"></path><path d="M150.223 508.547C149.786 506.936 149.578 505.272 149.605 503.603C149.573 501.934 149.781 500.269 150.223 498.659C150.658 500.27 150.866 501.934 150.841 503.603C150.862 505.271 150.654 506.935 150.223 508.547Z" fill="black"></path><path d="M135.749 508.547C135.318 506.935 135.11 505.271 135.131 503.603C135.105 501.934 135.313 500.27 135.749 498.659C136.191 500.269 136.399 501.934 136.367 503.603C136.388 505.271 136.18 506.935 135.749 508.547Z" fill="black"></path><path d="M133.673 508.547C132.849 505.302 132.849 501.903 133.673 498.659C134.497 501.903 134.497 505.302 133.673 508.547Z" fill="black"></path><path d="M112.141 508.547C111.317 505.302 111.317 501.903 112.141 498.659C112.965 501.903 112.965 505.302 112.141 508.547Z" fill="black"></path><path d="M109.077 508.547C108.646 506.935 108.438 505.271 108.459 503.603C108.434 501.934 108.642 500.27 109.077 498.659C109.519 500.269 109.727 501.934 109.695 503.603C109.722 505.272 109.514 506.936 109.077 508.547Z" fill="black"></path><path d="M116.591 508.547C115.767 505.302 115.767 501.903 116.591 498.659C117.415 501.903 117.415 505.302 116.591 508.547Z" fill="black"></path><path d="M145.157 508.547C144.333 505.302 144.333 501.903 145.157 498.659C145.981 501.903 145.981 505.302 145.157 508.547Z" fill="black"></path></g><path opacity="0.1" d="M162.619 497.497V500.117L106.715 501.884V497.497H162.619Z" fill="black"></path><path d="M159.221 485.137H103.305V497.497H159.221V485.137Z" fill="#FFBF00"></path><g opacity="0.1"><path d="M105.617 486.298C106.048 487.91 106.256 489.574 106.235 491.242C106.261 492.911 106.053 494.575 105.617 496.186C105.176 494.576 104.968 492.911 104.999 491.242C104.972 489.574 105.18 487.909 105.617 486.298Z" fill="black"></path><path d="M109.781 486.298C110.605 489.543 110.605 492.942 109.781 496.186C109.34 494.576 109.132 492.911 109.163 491.242C109.136 489.574 109.344 487.909 109.781 486.298Z" fill="black"></path><path d="M111.809 486.298C112.633 489.543 112.633 492.942 111.809 496.186C110.985 492.942 110.985 489.543 111.809 486.298Z" fill="black"></path><path d="M122.984 486.298C123.808 489.543 123.808 492.942 122.984 496.186C122.543 494.576 122.335 492.911 122.366 491.242C122.339 489.574 122.547 487.909 122.984 486.298Z" fill="black"></path><path d="M126.001 486.298C126.825 489.543 126.825 492.942 126.001 496.186C125.177 492.942 125.177 489.543 126.001 486.298Z" fill="black"></path><path d="M138.496 486.298C138.927 487.91 139.135 489.574 139.114 491.242C139.14 492.911 138.932 494.575 138.496 496.186C138.055 494.576 137.846 492.911 137.878 491.242C137.857 489.574 138.065 487.91 138.496 486.298Z" fill="black"></path><path d="M141.375 486.298C142.199 489.543 142.199 492.942 141.375 496.186C140.568 492.94 140.568 489.545 141.375 486.298Z" fill="black"></path><path d="M146.677 486.298C147.501 489.543 147.501 492.942 146.677 496.186C145.853 492.942 145.853 489.543 146.677 486.298Z" fill="black"></path><path d="M136.083 486.298C136.907 489.543 136.907 492.942 136.083 496.186C135.259 492.942 135.259 489.543 136.083 486.298Z" fill="black"></path><path d="M115.507 486.298C115.938 487.91 116.146 489.574 116.125 491.242C116.156 492.911 115.948 494.576 115.507 496.186C115.071 494.575 114.863 492.911 114.889 491.242C114.868 489.574 115.076 487.91 115.507 486.298Z" fill="black"></path><path d="M129.981 486.298C130.411 487.91 130.619 489.574 130.599 491.242C130.624 492.911 130.416 494.575 129.981 496.186C129.539 494.576 129.331 492.911 129.363 491.242C129.336 489.574 129.544 487.909 129.981 486.298Z" fill="black"></path><path d="M132.055 486.298C132.879 489.543 132.879 492.942 132.055 496.186C131.231 492.942 131.231 489.543 132.055 486.298Z" fill="black"></path><path d="M153.575 486.298C154.012 487.909 154.22 489.574 154.193 491.242C154.225 492.911 154.017 494.576 153.575 496.186C152.751 492.942 152.751 489.543 153.575 486.298Z" fill="black"></path><path d="M156.715 486.298C157.539 489.543 157.539 492.942 156.715 496.186C156.273 494.576 156.065 492.911 156.097 491.242C156.07 489.574 156.278 487.909 156.715 486.298Z" fill="black"></path><path d="M149.138 486.298C149.962 489.543 149.962 492.942 149.138 496.186C148.314 492.942 148.314 489.543 149.138 486.298Z" fill="black"></path><path d="M120.571 486.298C121.395 489.543 121.395 492.942 120.571 496.186C119.747 492.942 119.747 489.543 120.571 486.298Z" fill="black"></path></g><path opacity="0.1" d="M159.221 485.137V487.769L103.305 489.525V485.137H159.221Z" fill="black"></path><path d="M159.221 522.204H103.305V534.564H159.221V522.204Z" fill="#FFBF00"></path><g opacity="0.1"><path d="M156.713 533.266C155.887 530.022 155.887 526.623 156.713 523.378C157.539 526.623 157.539 530.022 156.713 533.266Z" fill="black"></path><path d="M152.547 533.266C152.11 531.656 151.902 529.991 151.929 528.322C151.896 526.653 152.104 524.988 152.547 523.378C152.985 524.989 153.193 526.654 153.165 528.322C153.186 529.991 152.978 531.654 152.547 533.266Z" fill="black"></path><path d="M150.51 533.266C149.684 530.022 149.684 526.623 150.51 523.378C151.336 526.623 151.336 530.022 150.51 533.266Z" fill="black"></path><path d="M139.348 533.266C138.911 531.656 138.703 529.991 138.73 528.322C138.696 526.653 138.905 524.988 139.348 523.378C140.174 526.623 140.174 530.022 139.348 533.266Z" fill="black"></path><path d="M136.272 533.266C135.446 530.022 135.446 526.623 136.272 523.378C137.098 526.623 137.098 530.022 136.272 533.266Z" fill="black"></path><path d="M123.834 533.266C123.008 530.022 123.008 526.623 123.834 523.378C124.661 526.623 124.661 530.022 123.834 533.266Z" fill="black"></path><path d="M120.944 533.266C120.118 530.022 120.118 526.623 120.944 523.378C121.387 524.988 121.595 526.653 121.562 528.322C121.589 529.991 121.381 531.656 120.944 533.266Z" fill="black"></path><path d="M115.643 533.266C114.817 530.022 114.817 526.623 115.643 523.378C116.469 526.623 116.469 530.022 115.643 533.266Z" fill="black"></path><path d="M126.247 533.266C125.816 531.654 125.608 529.991 125.629 528.322C125.595 526.653 125.803 524.988 126.247 523.378C126.684 524.989 126.892 526.654 126.865 528.322C126.885 529.991 126.677 531.654 126.247 533.266Z" fill="black"></path><path d="M146.827 533.266C146.001 530.022 146.001 526.623 146.827 523.378C147.653 526.623 147.653 530.022 146.827 533.266Z" fill="black"></path><path d="M132.352 533.266C131.915 531.656 131.707 529.991 131.734 528.322C131.7 526.653 131.909 524.988 132.352 523.378C133.178 526.623 133.178 530.022 132.352 533.266Z" fill="black"></path><path d="M130.264 533.266C129.438 530.022 129.438 526.623 130.264 523.378C131.09 526.623 131.09 530.022 130.264 533.266Z" fill="black"></path><path d="M108.745 533.266C107.918 530.022 107.918 526.623 108.745 523.378C109.571 526.623 109.571 530.022 108.745 533.266Z" fill="black"></path><path d="M105.618 533.266C105.181 531.656 104.973 529.991 105 528.322C104.966 526.653 105.174 524.988 105.618 523.378C106.055 524.989 106.263 526.654 106.236 528.322C106.257 529.991 106.049 531.654 105.618 533.266Z" fill="black"></path><path d="M113.182 533.266C112.356 530.022 112.356 526.623 113.182 523.378C114.008 526.623 114.008 530.022 113.182 533.266Z" fill="black"></path><path d="M141.757 533.266C141.326 531.654 141.118 529.991 141.139 528.322C141.112 526.654 141.32 524.989 141.757 523.378C142.201 524.988 142.409 526.653 142.375 528.322C142.396 529.991 142.188 531.654 141.757 533.266Z" fill="black"></path></g><path opacity="0.1" d="M159.221 522.204V524.824L103.305 526.592V522.204H159.221Z" fill="black"></path><path d="M215.139 560.249H159.223V572.609H215.139V560.249Z" fill="#FFBF00"></path><g opacity="0.1"><path d="M161.534 561.386C162.36 564.63 162.36 568.03 161.534 571.274C160.708 568.03 160.708 564.63 161.534 561.386Z" fill="black"></path><path d="M165.698 561.386C166.524 564.63 166.524 568.03 165.698 571.274C164.872 568.03 164.872 564.63 165.698 561.386Z" fill="black"></path><path d="M167.725 561.386C168.162 562.996 168.371 564.661 168.343 566.33C168.377 567.999 168.168 569.664 167.725 571.274C166.899 568.03 166.899 564.63 167.725 561.386Z" fill="black"></path><path d="M178.901 561.386C179.727 564.63 179.727 568.03 178.901 571.274C178.075 568.03 178.075 564.63 178.901 561.386Z" fill="black"></path><path d="M181.917 561.386C182.355 562.996 182.563 564.661 182.535 566.33C182.569 567.999 182.361 569.664 181.917 571.274C181.48 569.663 181.272 567.999 181.299 566.33C181.278 564.661 181.486 562.998 181.917 561.386Z" fill="black"></path><path d="M194.362 561.386C195.188 564.63 195.188 568.03 194.362 571.274C193.536 568.03 193.536 564.63 194.362 561.386Z" fill="black"></path><path d="M197.291 561.386C198.118 564.63 198.118 568.03 197.291 571.274C196.465 568.03 196.465 564.63 197.291 561.386Z" fill="black"></path><path d="M202.593 561.386C203.024 562.998 203.232 564.661 203.211 566.33C203.245 567.999 203.036 569.664 202.593 571.274C202.156 569.663 201.948 567.999 201.975 566.33C201.954 564.661 202.162 562.998 202.593 561.386Z" fill="black"></path><path d="M192.002 561.386C192.812 564.632 192.812 568.027 192.002 571.274C191.176 568.03 191.176 564.63 192.002 561.386Z" fill="black"></path><path d="M171.422 561.386C172.248 564.63 172.248 568.03 171.422 571.274C170.979 569.664 170.771 567.999 170.804 566.33C170.777 564.661 170.985 562.996 171.422 561.386Z" fill="black"></path><path d="M185.897 561.386C186.723 564.63 186.723 568.03 185.897 571.274C185.071 568.03 185.071 564.63 185.897 561.386Z" fill="black"></path><path d="M187.972 561.386C188.409 562.996 188.617 564.661 188.59 566.33C188.623 567.999 188.415 569.664 187.972 571.274C187.535 569.663 187.327 567.999 187.354 566.33C187.333 564.661 187.541 562.998 187.972 561.386Z" fill="black"></path><path d="M209.504 561.386C209.936 562.998 210.144 564.661 210.122 566.33C210.149 567.999 209.941 569.663 209.504 571.274C209.061 569.664 208.853 567.999 208.886 566.33C208.859 564.661 209.067 562.996 209.504 561.386Z" fill="black"></path><path d="M212.631 561.386C213.457 564.63 213.457 568.03 212.631 571.274C211.805 568.03 211.805 564.63 212.631 561.386Z" fill="black"></path><path d="M205.054 561.386C205.491 562.996 205.699 564.661 205.672 566.33C205.706 567.999 205.497 569.664 205.054 571.274C204.617 569.663 204.409 567.999 204.436 566.33C204.415 564.661 204.623 562.998 205.054 561.386Z" fill="black"></path><path d="M176.475 561.386C177.301 564.63 177.301 568.03 176.475 571.274C175.649 568.03 175.649 564.63 176.475 561.386Z" fill="black"></path></g><path opacity="0.1" d="M215.139 560.249V562.869L159.223 564.636V560.249H215.139Z" fill="black"></path><path d="M224.506 547.888H168.59V560.248H224.506V547.888Z" fill="#FFBF00"></path><g opacity="0.1"><path d="M170.876 549.025C171.7 552.27 171.7 555.669 170.876 558.913C170.052 555.669 170.052 552.27 170.876 549.025Z" fill="black"></path><path d="M175.052 549.025C175.876 552.27 175.876 555.669 175.052 558.913C174.228 555.669 174.228 552.27 175.052 549.025Z" fill="black"></path><path d="M177.055 549.025C177.879 552.27 177.879 555.669 177.055 558.913C176.613 557.304 176.404 555.639 176.437 553.969C176.411 552.301 176.619 550.636 177.055 549.025Z" fill="black"></path><path d="M188.255 549.025C189.079 552.27 189.079 555.669 188.255 558.913C187.431 555.669 187.431 552.27 188.255 549.025Z" fill="black"></path><path d="M191.282 549.025C192.106 552.27 192.106 555.669 191.282 558.913C190.458 555.669 190.458 552.27 191.282 549.025Z" fill="black"></path><path d="M203.766 549.025C204.59 552.27 204.59 555.669 203.766 558.913C202.942 555.669 202.942 552.27 203.766 549.025Z" fill="black"></path><path d="M206.719 549.025C207.149 550.638 207.357 552.301 207.337 553.969C207.363 555.638 207.155 557.302 206.719 558.913C206.277 557.304 206.069 555.639 206.101 553.969C206.075 552.301 206.283 550.636 206.719 549.025Z" fill="black"></path><path d="M211.962 549.025C212.786 552.27 212.786 555.669 211.962 558.913C211.138 555.669 211.138 552.27 211.962 549.025Z" fill="black"></path><path d="M201.356 549.025C201.793 550.636 202.001 552.301 201.974 553.969C202.007 555.639 201.799 557.304 201.356 558.913C200.532 555.669 200.532 552.27 201.356 549.025Z" fill="black"></path><path d="M180.763 549.025C181.587 552.27 181.587 555.669 180.763 558.913C179.939 555.669 179.939 552.27 180.763 549.025Z" fill="black"></path><path d="M195.251 549.025C196.075 552.27 196.075 555.669 195.251 558.913C194.427 555.669 194.427 552.27 195.251 549.025Z" fill="black"></path><path d="M197.337 549.025C198.161 552.27 198.161 555.669 197.337 558.913C196.513 555.669 196.513 552.27 197.337 549.025Z" fill="black"></path><path d="M218.868 549.025C219.692 552.27 219.692 555.669 218.868 558.913C218.044 555.669 218.044 552.27 218.868 549.025Z" fill="black"></path><path d="M221.985 549.025C222.809 552.27 222.809 555.669 221.985 558.913C221.161 555.669 221.161 552.27 221.985 549.025Z" fill="black"></path><path d="M214.419 549.025C215.243 552.27 215.243 555.669 214.419 558.913C213.595 555.669 213.595 552.27 214.419 549.025Z" fill="black"></path><path d="M185.843 549.025C186.279 550.636 186.487 552.301 186.461 553.969C186.493 555.639 186.285 557.304 185.843 558.913C185.407 557.302 185.199 555.638 185.225 553.969C185.205 552.301 185.413 550.638 185.843 549.025Z" fill="black"></path></g><path opacity="0.1" d="M224.494 547.888V550.521L168.59 552.288V547.888H224.494Z" fill="black"></path><path d="M219.823 535.64H163.906V548H219.823V535.64Z" fill="#FFBF00"></path><g opacity="0.1"><path d="M217.311 546.653C216.485 543.408 216.485 540.009 217.311 536.765C218.137 540.009 218.137 543.408 217.311 546.653Z" fill="black"></path><path d="M213.145 546.653C212.707 545.042 212.499 543.378 212.527 541.709C212.493 540.039 212.702 538.374 213.145 536.765C213.971 540.009 213.971 543.408 213.145 546.653Z" fill="black"></path><path d="M211.108 546.653C210.282 543.408 210.282 540.009 211.108 536.765C211.551 538.374 211.759 540.039 211.726 541.709C211.753 543.378 211.545 545.042 211.108 546.653Z" fill="black"></path><path d="M199.944 546.653C199.118 543.408 199.118 540.009 199.944 536.765C200.77 540.009 200.77 543.408 199.944 546.653Z" fill="black"></path><path d="M196.916 546.653C196.09 543.408 196.09 540.009 196.916 536.765C197.743 540.009 197.743 543.408 196.916 546.653Z" fill="black"></path><path d="M184.471 546.653C183.645 543.408 183.645 540.009 184.471 536.765C185.297 540.009 185.297 543.408 184.471 546.653Z" fill="black"></path><path d="M181.542 546.653C181.111 545.041 180.903 543.377 180.924 541.709C180.897 540.04 181.105 538.375 181.542 536.765C181.986 538.374 182.194 540.039 182.16 541.709C182.188 543.378 181.98 545.042 181.542 546.653Z" fill="black"></path><path d="M176.241 546.653C175.415 543.408 175.415 540.009 176.241 536.765C177.067 540.009 177.067 543.408 176.241 546.653Z" fill="black"></path><path d="M186.844 546.653C186.407 545.042 186.199 543.378 186.226 541.709C186.193 540.039 186.401 538.374 186.844 536.765C187.281 538.375 187.489 540.04 187.462 541.709C187.483 543.377 187.275 545.041 186.844 546.653Z" fill="black"></path><path d="M207.424 546.653C206.598 543.408 206.598 540.009 207.424 536.765C208.25 540.009 208.25 543.408 207.424 546.653Z" fill="black"></path><path d="M192.952 546.653C192.126 543.408 192.126 540.009 192.952 536.765C193.778 540.009 193.778 543.408 192.952 546.653Z" fill="black"></path><path d="M190.862 546.653C190.036 543.408 190.036 540.009 190.862 536.765C191.688 540.009 191.688 543.408 190.862 546.653Z" fill="black"></path><path d="M169.331 546.653C168.504 543.408 168.504 540.009 169.331 536.765C170.157 540.009 170.157 543.408 169.331 546.653Z" fill="black"></path><path d="M166.215 546.653C165.778 545.042 165.57 543.378 165.597 541.709C165.564 540.039 165.772 538.374 166.215 536.765C167.041 540.009 167.041 543.408 166.215 546.653Z" fill="black"></path><path d="M173.78 546.653C172.954 543.408 172.954 540.009 173.78 536.765C174.606 540.009 174.606 543.408 173.78 546.653Z" fill="black"></path><path d="M202.356 546.653C201.925 545.041 201.717 543.377 201.738 541.709C201.704 540.039 201.912 538.374 202.356 536.765C202.793 538.375 203.001 540.04 202.974 541.709C202.995 543.377 202.787 545.041 202.356 546.653Z" fill="black"></path></g><path opacity="0.1" d="M219.823 535.64V538.272L163.906 540.027V535.64H219.823Z" fill="black"></path><path d="M98.6451 516.062C135.453 522.662 125.726 577.182 88.8683 570.569C52.0108 563.957 61.7752 509.449 98.6451 516.062Z" fill="#FFBF00"></path><path opacity="0.1" d="M98.6451 516.062C135.453 522.662 125.726 577.182 88.8683 570.569C52.0108 563.957 61.7752 509.449 98.6451 516.062Z" fill="black"></path><path opacity="0.1" d="M68.0547 543.983C68.2401 553.685 73.901 563.104 86.2486 565.316C115.393 570.544 123.477 525.294 94.3568 520.078L93.7882 519.979C121.091 525.443 113.268 568.27 85.4699 563.239C74.1234 561.25 68.6603 552.857 68.0547 543.983Z" fill="black"></path><path d="M83.4414 526.871L89.9768 528.156C92.4045 528.633 94.5687 529.916 95.9961 531.725C97.4218 533.533 97.9933 535.718 97.5845 537.797C97.1757 539.876 95.8196 541.682 93.8156 542.816C91.8097 543.949 89.3207 544.318 86.893 543.84L80.3576 542.556L92.2499 557.565M81.8995 534.713L101.07 538.482M90.4125 528.241L102.612 530.64" stroke="#E6AC00" stroke-width="4" stroke-miterlimit="10" stroke-linecap="round"></path></svg>