<svg width="66" height="42" viewBox="0 0 66 42" fill="none" xmlns="http://www.w3.org/2000/svg">
<g clip-path="url(#clip0_2035_496)">
<path fill-rule="evenodd" clip-rule="evenodd" d="M16.0009 10.25C16.0009 10.0511 16.0799 9.86032 16.2205 9.71967C16.3612 9.57902 16.5519 9.5 16.7509 9.5H19.0009C19.1682 9.50005 19.3306 9.55603 19.4625 9.65904C19.5943 9.76205 19.6879 9.90618 19.7284 10.0685L20.3359 12.5H37.7509C37.8618 12.5001 37.9713 12.5247 38.0715 12.5722C38.1718 12.6197 38.2602 12.6889 38.3305 12.7746C38.4008 12.8604 38.4512 12.9608 38.4781 13.0684C38.5049 13.176 38.5076 13.2882 38.4859 13.397L36.9859 20.897C36.953 21.0605 36.8666 21.2085 36.7403 21.3174C36.614 21.4264 36.455 21.4901 36.2884 21.4985L22.1929 22.2065L22.6234 24.5H35.5009C35.6998 24.5 35.8905 24.579 36.0312 24.7197C36.1718 24.8603 36.2509 25.0511 36.2509 25.25C36.2509 25.4489 36.1718 25.6397 36.0312 25.7803C35.8905 25.921 35.6998 26 35.5009 26H22.0009C21.826 25.9998 21.6567 25.9386 21.5222 25.8268C21.3877 25.7151 21.2965 25.5599 21.2644 25.388L19.0159 13.4105L18.4159 11H16.7509C16.5519 11 16.3612 10.921 16.2205 10.7803C16.0799 10.6397 16.0009 10.4489 16.0009 10.25ZM20.6539 14L21.9139 20.7185L35.6299 20.03L36.8359 14H20.6539ZM23.5009 26C22.7052 26 21.9421 26.3161 21.3795 26.8787C20.8169 27.4413 20.5009 28.2044 20.5009 29C20.5009 29.7956 20.8169 30.5587 21.3795 31.1213C21.9421 31.6839 22.7052 32 23.5009 32C24.2965 32 25.0596 31.6839 25.6222 31.1213C26.1848 30.5587 26.5009 29.7956 26.5009 29C26.5009 28.2044 26.1848 27.4413 25.6222 26.8787C25.0596 26.3161 24.2965 26 23.5009 26ZM34.0009 26C33.2052 26 32.4421 26.3161 31.8795 26.8787C31.3169 27.4413 31.0009 28.2044 31.0009 29C31.0009 29.7956 31.3169 30.5587 31.8795 31.1213C32.4421 31.6839 33.2052 32 34.0009 32C34.7965 32 35.5596 31.6839 36.1222 31.1213C36.6848 30.5587 37.0009 29.7956 37.0009 29C37.0009 28.2044 36.6848 27.4413 36.1222 26.8787C35.5596 26.3161 34.7965 26 34.0009 26ZM23.5009 27.5C23.103 27.5 22.7215 27.658 22.4402 27.9393C22.1589 28.2206 22.0009 28.6022 22.0009 29C22.0009 29.3978 22.1589 29.7794 22.4402 30.0607C22.7215 30.342 23.103 30.5 23.5009 30.5C23.8987 30.5 24.2802 30.342 24.5615 30.0607C24.8428 29.7794 25.0009 29.3978 25.0009 29C25.0009 28.6022 24.8428 28.2206 24.5615 27.9393C24.2802 27.658 23.8987 27.5 23.5009 27.5ZM34.0009 27.5C33.603 27.5 33.2215 27.658 32.9402 27.9393C32.6589 28.2206 32.5009 28.6022 32.5009 29C32.5009 29.3978 32.6589 29.7794 32.9402 30.0607C33.2215 30.342 33.603 30.5 34.0009 30.5C34.3987 30.5 34.7802 30.342 35.0615 30.0607C35.3428 29.7794 35.5009 29.3978 35.5009 29C35.5009 28.6022 35.3428 28.2206 35.0615 27.9393C34.7802 27.658 34.3987 27.5 34.0009 27.5Z" fill="#343A40"/>
</g>
<rect x="28.0009" width="18" height="20" rx="9" fill="#7749F8"/>
<path d="M37.2889 7.352L37.3009 6.872C37.3009 6.72 37.2849 6.628 37.2529 6.596C37.2209 6.564 37.1809 6.536 37.1329 6.512C37.0529 6.472 36.9289 6.452 36.7609 6.452C36.6009 6.452 36.4729 6.456 36.3769 6.464C36.2809 6.464 36.2009 6.468 36.1369 6.476C36.0809 6.476 36.0209 6.484 35.9569 6.5C35.9009 6.508 35.8609 6.516 35.8369 6.524C35.7169 6.564 35.6249 6.592 35.5609 6.608H34.9729L34.6369 5.396C35.0689 5.116 35.7289 4.976 36.6169 4.976C37.1689 4.976 37.6049 5.016 37.9249 5.096C38.2449 5.168 38.4849 5.312 38.6449 5.528C38.8049 5.744 38.9049 5.984 38.9449 6.248C38.9929 6.504 39.0169 6.76 39.0169 7.016C39.0169 7.264 39.0169 7.448 39.0169 7.568C39.0249 7.688 39.0249 7.768 39.0169 7.808C39.0169 7.84 39.0089 7.924 38.9929 8.06C38.9769 8.188 38.9529 8.296 38.9209 8.384C38.8969 8.464 38.8529 8.592 38.7889 8.768C38.7329 8.936 38.6609 9.096 38.5729 9.248C38.4929 9.4 38.3889 9.592 38.2609 9.824C38.1329 10.056 37.9849 10.296 37.8169 10.544C37.3129 11.32 36.8769 11.948 36.5089 12.428H39.0289L39.2209 12.62V14H34.4689V12.512C35.6849 10.776 36.4569 9.62 36.7849 9.044C37.1209 8.46 37.2889 7.896 37.2889 7.352Z" fill="white"/>
<defs>
<clipPath id="clip0_2035_496">
<rect width="24" height="24" fill="white" transform="translate(16.0009 8)"/>
</clipPath>
</defs>
</svg>
