<svg width="22" height="20" viewBox="0 0 22 20" fill="none" xmlns="http://www.w3.org/2000/svg">
<g clip-path="url(#clip0_2041_1208)">
<path fill-rule="evenodd" clip-rule="evenodd" d="M14.4719 13.0528C14.5977 12.9365 14.747 12.8443 14.9114 12.7814C15.0758 12.7185 15.252 12.6861 15.43 12.6861C15.6079 12.6861 15.7841 12.7185 15.9485 12.7814C16.1129 12.8443 16.2623 12.9365 16.388 13.0528L21.6016 17.8653C21.8557 18.0996 21.9985 18.4176 21.9986 18.7492C21.9987 19.0808 21.8562 19.3988 21.6022 19.6334C21.3483 19.8679 21.0039 19.9998 20.6447 19.9999C20.2854 20 19.9409 19.8684 19.6868 19.634L14.4732 14.8215C14.3473 14.7054 14.2475 14.5675 14.1793 14.4158C14.1112 14.2641 14.0761 14.1014 14.0761 13.9371C14.0761 13.7729 14.1112 13.6102 14.1793 13.4585C14.2475 13.3067 14.3473 13.1688 14.4732 13.0528H14.4719Z" fill="#343A40" fill-opacity="0.5"/>
<path fill-rule="evenodd" clip-rule="evenodd" d="M9.13541 15C10.1135 15 11.082 14.8222 11.9856 14.4767C12.8892 14.1312 13.7103 13.6248 14.4019 12.9864C15.0935 12.348 15.6421 11.5901 16.0164 10.7559C16.3907 9.92184 16.5833 9.02784 16.5833 8.125C16.5833 7.22216 16.3907 6.32817 16.0164 5.49405C15.6421 4.65994 15.0935 3.90204 14.4019 3.26364C13.7103 2.62524 12.8892 2.11883 11.9856 1.77333C11.082 1.42783 10.1135 1.25 9.13541 1.25C7.1601 1.25 5.26569 1.97433 3.86894 3.26364C2.47218 4.55295 1.68749 6.30164 1.68749 8.125C1.68749 9.94836 2.47218 11.697 3.86894 12.9864C5.26569 14.2757 7.1601 15 9.13541 15ZM17.9375 8.125C17.9375 10.2799 17.0101 12.3465 15.3594 13.8702C13.7087 15.394 11.4699 16.25 9.13541 16.25C6.80095 16.25 4.56211 15.394 2.9114 13.8702C1.26069 12.3465 0.333328 10.2799 0.333328 8.125C0.333328 5.97012 1.26069 3.90349 2.9114 2.37976C4.56211 0.856024 6.80095 0 9.13541 0C11.4699 0 13.7087 0.856024 15.3594 2.37976C17.0101 3.90349 17.9375 5.97012 17.9375 8.125Z" fill="#343A40" fill-opacity="0.5"/>
</g>
<defs>
<clipPath id="clip0_2041_1208">
<rect width="21.6667" height="20" fill="white" transform="translate(0.333328)"/>
</clipPath>
</defs>
</svg>
